<svg id="Layer_1" data-name="Layer 1" xmlns="http://www.w3.org/2000/svg" xmlns:xlink="http://www.w3.org/1999/xlink" viewBox="0 0 484 577"><defs><style>.cls-1{fill:#fff;}.cls-2{opacity:0.3;fill:url(#Gradient_bez_nazwy_17);}.cls-3{opacity:0.6;fill:url(#Gradient_bez_nazwy_17-2);}.cls-4{fill:url(#Gradient_bez_nazwy_17-3);}.cls-24,.cls-5{fill:none;stroke-miterlimit:10;}.cls-5{stroke:#fff;stroke-width:2px;}.cls-6{clip-path:url(#clip-path);}.cls-7{fill:#febba4;}.cls-8{fill:#ffab91;}.cls-9{fill:#22114b;}.cls-10{fill:#3b3566;}.cls-11{fill:#ecf3ff;}.cls-12{fill:#596bfc;}.cls-13{fill:#fcfdff;}.cls-14{fill:#524a80;}.cls-15{clip-path:url(#clip-path-2);}.cls-16{fill:#ebedf9;}.cls-17{clip-path:url(#clip-path-3);}.cls-18{fill:#fd6667;}.cls-19{fill:#34187d;}.cls-20{fill:#4d438f;}.cls-21{fill:#1e0d45;}.cls-22{fill:#20ace3;}.cls-23{fill:url(#Gradient_bez_nazwy_12);}.cls-24{stroke:#20ace3;stroke-width:8px;}.cls-25{fill:#eaedf8;}.cls-26{clip-path:url(#clip-path-4);}.cls-27{fill:#e2bba1;}.cls-28{fill:#4b46cd;}.cls-29{fill:#51d3be;}.cls-30{fill:#00afa1;}.cls-31{fill:#e6e7e8;}.cls-32{fill:url(#Nowa_próbka_gradientu_1);}.cls-33{fill:url(#Nowa_próbka_gradientu_1-2);}</style><linearGradient id="Gradient_bez_nazwy_17" x1="260" y1="50" x2="260" y2="578.3" gradientUnits="userSpaceOnUse"><stop offset="0" stop-color="#eaedf8"/><stop offset="1" stop-color="#fff"/></linearGradient><linearGradient id="Gradient_bez_nazwy_17-2" x1="242" y1="26" x2="242" y2="554.3" xlink:href="#Gradient_bez_nazwy_17"/><linearGradient id="Gradient_bez_nazwy_17-3" x1="224" y1="2" x2="224" y2="530.3" xlink:href="#Gradient_bez_nazwy_17"/><clipPath id="clip-path" transform="translate(-493 -109)"><circle class="cls-1" cx="849.5" cy="217.5" r="51.5"/></clipPath><clipPath id="clip-path-2" transform="translate(-493 -109)"><circle class="cls-1" cx="719.5" cy="175.5" r="28.5"/></clipPath><clipPath id="clip-path-3" transform="translate(-493 -109)"><circle class="cls-1" cx="727.56" cy="366.22" r="104.7"/></clipPath><linearGradient id="Gradient_bez_nazwy_12" x1="727.56" y1="394.76" x2="809.12" y2="394.76" gradientUnits="userSpaceOnUse"><stop offset="0" stop-color="#c980e8"/><stop offset="1" stop-color="#24ace2"/></linearGradient><clipPath id="clip-path-4" transform="translate(-493 -109)"><circle class="cls-1" cx="589.5" cy="217.5" r="67.5"/></clipPath><linearGradient id="Nowa_próbka_gradientu_1" x1="797.16" y1="353.25" x2="816.29" y2="353.25" gradientUnits="userSpaceOnUse"><stop offset="0" stop-color="#b6378c"/><stop offset="1" stop-color="#1cade5"/></linearGradient><linearGradient id="Nowa_próbka_gradientu_1-2" x1="309.12" y1="239.15" x2="327.14" y2="239.15" xlink:href="#Nowa_próbka_gradientu_1"/></defs><title>Background-Screening</title><rect class="cls-2" x="36" y="48" width="448" height="529"/><rect class="cls-3" x="18" y="24" width="448" height="529"/><rect class="cls-4" width="448" height="529"/><circle class="cls-5" cx="237" cy="181.5" r="119.5"/><circle class="cls-1" cx="356.5" cy="108.5" r="51.5"/><g class="cls-6"><g id="_6" data-name="6"><path class="cls-7" d="M834.91,208.46a6.76,6.76,0,0,0-.66-3,5.55,5.55,0,0,0-.32-.71,1.64,1.64,0,0,0-.81-.83c-1.59-.64-3.08,1.55-3.22,2.88a6.39,6.39,0,0,0,0,1,6.72,6.72,0,0,0,.41,2c.11.31.24.63.38.94,1.56,2.1,1.56,6.63,5,4.37,1.14-1.13,0-4.53-.74-5.67A2.75,2.75,0,0,1,834.91,208.46Z" transform="translate(-493 -109)"/><path class="cls-7" d="M865.19,204a1.7,1.7,0,0,0-.82.83,7.28,7.28,0,0,0-.31.71,6.76,6.76,0,0,0-.66,3,2.53,2.53,0,0,1,0,1c-.74,1.14-1.87,4.54-.74,5.67,3.4,2.26,3.4-2.27,5-4.37.14-.31.27-.63.38-.94a6.71,6.71,0,0,0,.4-2,6.39,6.39,0,0,0,0-1C868.27,205.5,866.77,203.31,865.19,204Z" transform="translate(-493 -109)"/><path class="cls-8" d="M858.72,229.44c-.25-2.44.21-3.07.24-5l-.05,0c-.34.36-.68.72-1,1.07-2.19,2.12-4.87,4.09-7.57,4.57a10.07,10.07,0,0,1-1.14.05c-.3,0-.59,0-.82,0l-.31,0c-2.75-.49-5.48-2.52-7.69-4.68-.33-.32-.63-.64-.94-1a.08.08,0,0,0,0,0c-.13,2.28.35,2.55.11,5-.28,2.75-.62,5.4-1,7.93,4.28,4.9,4.66,10.68,9.86,10.36l.56,0a5.42,5.42,0,0,0,.57,0c5.76.79,5.82-5.26,10.25-10.33C859.33,234.84,859,232.19,858.72,229.44Z" transform="translate(-493 -109)"/><path class="cls-7" d="M865,199.61a17.55,17.55,0,0,0-.27-2.74c-1.33-7.75-5.92-9.65-15.56-10.18l-.82.05c-9.06.6-13.45,2.61-14.74,10.13a18.85,18.85,0,0,0-.26,2.74c-.44,3.22.37,12.3.37,12.49a17.71,17.71,0,0,0,4.46,11c.37.44.8.91,1.23,1.38.31.32.61.64.94,1,2.21,2.16,4.94,4.19,7.69,4.68l.31,0c.23,0,.52,0,.82,0a10.07,10.07,0,0,0,1.14-.05c2.7-.48,5.38-2.45,7.57-4.57.37-.35.71-.71,1-1.07s.86-.93,1.24-1.38a17.7,17.7,0,0,0,4.45-11C864.61,211.91,865.42,202.83,865,199.61Z" transform="translate(-493 -109)"/><path class="cls-9" d="M868.87,192c-.13-1.38-3.47-15.14-5.24-14.7-4.86,1.18-9.92.84-14.92,1.12-.7,0-1.39.09-2.08.16-5,.5-9.93,2.19-13.27,6.09-3.74,4.37-3.47,9-2.33,14.41.3,1.44,1.1,6.59,2.17,10.72.16.63,1,.15,1.37.22.54-1.69,0-9.59.41-11.76s.87-5.82,2.56-7.17a6.87,6.87,0,0,1,4.55-1.24c1.61.07,3.18.45,4.77.65a8.16,8.16,0,0,0,1.85,0c3-.28,6.33-1.72,9-.83,3,1,4.66,6.72,5.33,9.5.8,3.28.53,6.51.63,9.88l1.45-.23c.85-4.72,3.59-8.73,3.82-13.8A23.59,23.59,0,0,0,868.87,192Z" transform="translate(-493 -109)"/><path class="cls-1" d="M838.7,235.74l-5.5,4.79a54.06,54.06,0,0,0,10.43,14.25s1.51-6.05,5.48-9.05C843.06,243.66,838.7,235.74,838.7,235.74Z" transform="translate(-493 -109)"/><path class="cls-10" d="M849.11,268.9V245.72s-2.64,5.66-5.67,4.15l-4.67-11.66-4.11,1.89-4.78,2.21-1.48.46L824.49,244l-9.93,3.08a6.91,6.91,0,0,0-2.94,1.83l-3.82,4a6.83,6.83,0,0,0-1.74,3.42c-.28,1.52-.71,9.68-1.24,12.54Z" transform="translate(-493 -109)"/><path class="cls-10" d="M893.48,268.9c-.53-2.86-1-11-1.24-12.54a6.75,6.75,0,0,0-1.74-3.42l-3.82-4a6.81,6.81,0,0,0-2.93-1.83L873.81,244l-3.91-1.22-1.47-.46-4.79-2.21-4.11-1.89-4.67,11.66c-3,1.51-5.66-4.15-5.66-4.15V268.9Z" transform="translate(-493 -109)"/><path class="cls-11" d="M858.3,268.9l2.54-12.63-10.57-11.79h-1.42s-11.11,11.67-11,12.52l2.52,11.9Z" transform="translate(-493 -109)"/><path class="cls-12" d="M847.29,252.32l-2.37,16.58h8.78l-2.36-16.58a2.34,2.34,0,0,1,.22-1.6L853,248a.43.43,0,0,0-.09-.47l-1.65-1.63a4.61,4.61,0,0,1-1-1.21c-.16-.35-.58-1.13-1.08-.8s-.57.75-.86,1.13a8.68,8.68,0,0,1-1,1.05l-1.47,1.46a.43.43,0,0,0-.1.47l1.43,2.68A2.34,2.34,0,0,1,847.29,252.32Z" transform="translate(-493 -109)"/><path class="cls-13" d="M849.6,243.52a.4.4,0,0,1-.57,0l-10.61-10.28L836,240.7l4.59,16.3L849,244.41a.41.41,0,0,1,.7,0L858,257l4.58-16.3-2.37-7.46Z" transform="translate(-493 -109)"/><path class="cls-14" d="M828.58,252.21l5.67,16.69H844l-.74-2.4L840,251.2l-4-11.91c-.91.27-3.94,1.61-7,2.53a26.4,26.4,0,0,0-1.36,4.49l6.87,3.38Z" transform="translate(-493 -109)"/><path class="cls-14" d="M864.32,268.9l5.73-16.69-6-2.52,6.87-3.38a23.8,23.8,0,0,0-1.36-4.18c-3.05-.92-6.08-2.56-7-2.84l-5.44,16.16L855.4,266.5l-.82,2.4Z" transform="translate(-493 -109)"/></g></g><circle class="cls-1" cx="226.5" cy="66.5" r="28.5"/><g class="cls-15"><g id="_6-2" data-name="6"><path class="cls-1" d="M713.52,185.59l-3,2.65a29.78,29.78,0,0,0,5.77,7.89s.84-3.34,3-5C715.94,190,713.52,185.59,713.52,185.59Z" transform="translate(-493 -109)"/><path class="cls-16" d="M743.15,197a3.79,3.79,0,0,0-1-1.9l-2.11-2.24a3.78,3.78,0,0,0-1.63-1l-5.5-1.71-2.16-.68h0a3.07,3.07,0,0,0-.14-.34c-1.68-.51-3.36-1.42-3.87-1.57l0,.16-.18-.09-1.08-3.42-.52.5c-.11-.85-.22-1.71-.31-2.6a16.69,16.69,0,0,1,.13-2.77l0,0c.24-.26.47-.52.68-.77a9.8,9.8,0,0,0,2.47-6.09s.06-.79.13-1.79l.16,0c.47-2.61,2-4.83,2.11-7.63a11.78,11.78,0,0,0,0-1.68c-.07-.77-1.92-8.38-2.9-8.14-2.69.66-5.49.47-8.26.62-.38,0-.77,0-1.15.09a10.81,10.81,0,0,0-7.34,3.37c-2.07,2.42-1.92,5-1.29,8,.17.79.61,3.64,1.2,5.93a.19.19,0,0,0,.19.16c.05.65.09,1.09.09,1.12a9.79,9.79,0,0,0,2.46,6.09c.21.25.44.51.69.77l0,0c-.07,1.27.2,1.42.06,2.77-.08.81-.17,1.61-.27,2.39l-.3-.29-1.06,3.33-.23.1,0-.08c-.5.15-2.18.89-3.87,1.4-.08.17-.13.32-.19.47l-.16,0-2.17.68-5.5,1.71a3.69,3.69,0,0,0-1.62,1l-2.11,2.24a3.73,3.73,0,0,0-1,1.9c-.16.84-.39,5.35-.68,6.94h49.06C743.55,202.36,743.31,197.85,743.15,197Z" transform="translate(-493 -109)"/></g></g><circle class="cls-1" cx="234.56" cy="257.22" r="104.7"/><g class="cls-17"><g id="_3" data-name="3"><path class="cls-11" d="M715,470.81h43c-.69-5.1-1.49-10.19-2.54-15.25-2.23-10.7-4.1-19.18-12-26.73-3.36-3.22-10.06-13.79-14.84-12.84-4,0-15.26,16.1-16.38,19.55a12.77,12.77,0,0,0-.64,3.51c-.1,3.12,1.1,5.68,1.61,10C714.1,456.28,714.54,463.56,715,470.81Z" transform="translate(-493 -109)"/><path class="cls-18" d="M723.11,464l3,6.8h16.23l1.47-4.62a.79.79,0,0,0,0-.48L734.58,432a4.72,4.72,0,0,1,.17-3.14l2.26-5.17a1,1,0,0,0-.25-1l-3.31-3.57a10.83,10.83,0,0,1-2.13-2.6c-.34-.73-1.26-2.39-2.13-1.79s-1,1.43-1.42,2.17a15.23,15.23,0,0,1-1.79,2l-2.48,2.72a.86.86,0,0,0-.1.93l3.06,5.58a5.39,5.39,0,0,1,.65,3.2L723,463.53A.81.81,0,0,0,723.11,464Z" transform="translate(-493 -109)"/><path class="cls-19" d="M814.41,470.81c-.47-4.36-2.16-23-3-28.62-1.06-6.64-2.44-13.55-6.64-18.8-4.62-5.77-6.58-8.67-13.9-9.71-8.07-1.14-32.84-6.25-37.48-8.65-2.55,10.74-4.34,22-6.86,32.75,0,.19-4.27,18-7.66,33Z" transform="translate(-493 -109)"/><path class="cls-13" d="M750.32,394.15,730.05,414a.8.8,0,0,1-1.14-.09l-23-22.8-9.44,17.07,18.2,31.13,14.28-23.6a.82.82,0,0,1,1.39.12l18.44,26.65,7.39-32.25Z" transform="translate(-493 -109)"/><path class="cls-20" d="M749.85,470.81a177.48,177.48,0,0,1,19.95-35.89l-11.67-6.09L771,423c-.75-2.21-2.45-5.68-4.73-10.38-3.4-7-11.4-12.48-13.18-13.18l-7.31,39.73-2.57,9.88-4.91,21.74Z" transform="translate(-493 -109)"/><polygon class="cls-8" points="213.52 274.27 213.42 276.22 212.6 292.36 235.41 313.11 243.38 305.81 256.31 293.99 257.31 274.15 213.52 274.27"/><path class="cls-7" d="M765,350c-.89.55-.55,2-1.37,2.49-2,1.09-2.06-1.6-2.12-2.79-.27-4.54,2.13-8.76,1.77-13.22-.49-6.21-7.33-13.21-13-15.6-5.35-2.23-11.58-.16-17.43,1.16-.35.08-.71.14-1,.23a32,32,0,0,0-19.36-.86c-5.93,1.8-12.32,5.68-13.45,11.81-.8,4.4,1.16,8.84.44,13.33-.19,1.18-.52,3.85-2.4,2.56-.78-.53-.28-2-1.11-2.62-1.84-1.41-2.74.84-2.89,2.21a28.59,28.59,0,0,0,2.06,14.72c1.21,2.63,3,3.45,4.82,5.39,2,2.16,1.42,6.16,2.06,8.75a14.37,14.37,0,0,0,2.16,4.83c2.15,3.07,6.07,4.65,8.57,7.47,2.33,2.64,4.48,5.27,7.79,7.06,2,1.09,4.84,1.25,7.46,1.26l1,.09a14.7,14.7,0,0,0,6.52-.58c3.47-1.46,5.88-3.85,8.47-6.24,2.77-2.55,6.83-3.73,9.28-6.57a14.45,14.45,0,0,0,2.63-4.58c.91-2.52.77-6.56,2.94-8.5,2-1.75,3.87-2.39,5.34-4.87a28.6,28.6,0,0,0,3.54-14.45C767.65,351.09,767,348.75,765,350Z" transform="translate(-493 -109)"/><path class="cls-21" d="M695.6,347.14a28.43,28.43,0,0,1,.36,8.72c0,.42-.09,1.06-.12,1.76h0c0-2.31,4.66-8.12,4.52-17.71-.11-8.11,7.38-13.41,14-13.67,4.9-.2,9.73,1.2,14.61,1.46,6,.33,8.93-2.89,13.87-6.07,1.32-.85.57-1,1.88-.55.85.3,1.89,1.72,2.61,2.28,4.36,3.43,12.33,7,13.29,13.81.76,5.36.27,10.76-.12,16.14a68,68,0,0,0-.83,7.55l2.72.14c1-3.21,2.43-7.57,2.8-9.27,1.49-6.78,1.37-9.81,1.8-12.7,1.51-10.27,2.5-20.14-2.58-29.07-5.43-9.57-13.91-15.44-18.62-15-.27,0-3.44.19-3.06.62-1.58-1.81-4.49-2.08-6.53-2.75-10.81-3.58-25.08,3.59-33.48,11.59-8.87,8.44-8.2,19.92-7.8,30.93C695.11,339.21,694.86,343.44,695.6,347.14Z" transform="translate(-493 -109)"/><path class="cls-13" d="M750.32,394.15,730.05,414a.8.8,0,0,1-1.14-.09l-23-22.8-9.44,17.07,18.2,31.13,14.28-23.6a.82.82,0,0,1,1.39.12l18.44,26.65,7.39-32.25Z" transform="translate(-493 -109)"/><path class="cls-19" d="M729.67,470.81c-4.59-14.44-10.91-28.71-16-42.81l-8.86-24.74s-.23.08-.67.2c-1.61.42-5.88,3.11-11.23,4.55-10.45,2.86-21.27,7.47-31.87,9.19-18.38,3-20.47,33.56-20.8,53.61Z" transform="translate(-493 -109)"/><path class="cls-20" d="M689.32,437c8.68,10.58,17.49,20.1,25.72,33.78h15.33l-9.29-23.87L713.71,428l-10.18-31.3c-1.61.42-18.21,18-18.58,20l18.56,7.47Z" transform="translate(-493 -109)"/></g></g><rect class="cls-22" x="883.03" y="441.25" width="7.82" height="50.05" transform="translate(-562.93 654.73) rotate(-45)"/><rect class="cls-22" x="890.65" y="453.91" width="19.98" height="52.13" rx="9.99" transform="translate(-568.6 668.43) rotate(-45)"/><circle class="cls-1" cx="313.52" cy="285.58" r="78.96"/><path class="cls-23" d="M790.83,413.68c-5.39-.76-18.2-3.29-27.51-5.6-3.81-4.72-8.86-8.08-10.23-8.62L752.8,401l-2.48-6.86-.59.58.37-7.34a13.94,13.94,0,0,0,3.11-2.54,14.45,14.45,0,0,0,2.63-4.58c.91-2.52.77-6.56,2.94-8.5,2-1.75,3.87-2.39,5.34-4.87a28.6,28.6,0,0,0,3.54-14.45c0-1.2-.53-3.15-2-2.77,1.05-5.37,1-8.07,1.38-10.65a90.88,90.88,0,0,0,1.21-13.53,79.06,79.06,0,0,0-36.75,93.77l.72-.65,11.91,20.89.88,1.75-.38,2.36A79.12,79.12,0,0,0,768.92,464,106.26,106.26,0,0,0,809.12,432a26.44,26.44,0,0,0-4.39-8.56C800.11,417.62,798.15,414.72,790.83,413.68Z" transform="translate(-493 -109)"/><circle class="cls-24" cx="313.52" cy="285.58" r="78.96"/><circle class="cls-25" cx="313.62" cy="244.31" r="11.76"/><rect class="cls-25" x="301.85" y="265.34" width="62.15" height="8.66"/><rect class="cls-25" x="301.85" y="282.9" width="32.19" height="3.9"/><rect class="cls-25" x="301.85" y="291.68" width="42.92" height="3.9"/><circle class="cls-1" cx="96.5" cy="108.5" r="67.5"/><g class="cls-26"><g id="_14" data-name="14"><g id="_10" data-name="10"><path class="cls-8" d="M605.28,248.51,604,244.93l-2-5.77,0,.06c0-.1,0-.21,0-.31a35.43,35.43,0,0,1-.2-10.6c-.51.5-1,1-1.57,1.48l-.8.71c-3,2.63-5.88,3.86-8.79,3.78-2.9.08-5.83-1.15-8.79-3.78l-.79-.71a48.51,48.51,0,0,1-4.31-4.29,31.48,31.48,0,0,1-1,11.87,22.94,22.94,0,0,1-3.13,6.19,24,24,0,0,0-2.6,4.95.67.67,0,0,0,0,.42c2.63,8.55,5.16,17.75,12.91,23.15a14.53,14.53,0,0,0,3.63,1.92,10.78,10.78,0,0,0,9.87-1.63c3.91-3,4.13-8.15,5.5-12.52,1.14-3.63,2.25-7.28,3.37-10.92A.67.67,0,0,0,605.28,248.51Z" transform="translate(-493 -109)"/><path class="cls-7" d="M609.66,201.39c0-.09-.09-.18-.14-.27-1.19-2.26-1.73-5.43-2.42-7.89s-2-4.66-2.29-7.26c.24,2.23-6.13,5.21-7.75,6.34a45.94,45.94,0,0,1-6.46,3.27v0A62.06,62.06,0,0,0,579,199.76c-4,2.25-7.93,6.36-11.57,9.31.45,2.43,1.53,6.43,3.83,6.57.71,0,1.09.87,1.21,1.57a17,17,0,0,0,4.21,8.29,48.51,48.51,0,0,0,4.31,4.29l.79.71c3,2.63,5.89,3.86,8.79,3.78,2.91.08,5.83-1.15,8.79-3.78l.8-.71c.54-.49,1.06-1,1.57-1.48a26.28,26.28,0,0,0,7.1-10.35,11.31,11.31,0,0,0,.42-1.88,2.83,2.83,0,0,0,2.27-.92,5.38,5.38,0,0,0,.53-2.18c.1-1,.2-3.32.29-4.31C612.74,205,611.18,204.14,609.66,201.39Z" transform="translate(-493 -109)"/><path class="cls-27" d="M572.88,243.13a3.69,3.69,0,0,1-.07.65c-.07-.07-.14-.16-.2-.23S572.79,243.26,572.88,243.13Z" transform="translate(-493 -109)"/><path class="cls-28" d="M594.4,166a27.76,27.76,0,0,0-26,11.3,32.17,32.17,0,0,0-4.08,8.37c-2.38,6.9-3.91,14.54-2.6,21.82a22.13,22.13,0,0,0,4,9.46,15.93,15.93,0,0,0,7.48,5.46,6.62,6.62,0,0,1-1.3-2,14.06,14.06,0,0,1-.86-2,16.33,16.33,0,0,1-.77-3.71,10.68,10.68,0,0,1,1.69-7.12c3.32-4.58,11.49-6.62,16.48-8.6s16.78-6,16.43-13a36.7,36.7,0,0,0,2.37,10c2,4.49,4.41,8,4.88,13.08a25.68,25.68,0,0,1-3.8,15.91,6.35,6.35,0,0,0,4.84-2.38c6.34-7.22,9.42-17.64,9.23-27.13-.16-8.19-2.66-15.14-9.22-20.23-.59-.45-6.15-3.55-6.1-2.51C606.86,169.09,597.09,166.38,594.4,166Z" transform="translate(-493 -109)"/><path class="cls-29" d="M639.82,284.93c-.82-9-2-17.3-3-21.33-2.31-8.63-7.41-10.92-15.88-13.51-1.29-.39-18.68-3-17.53-6.81-3.82,12.52-8.49,23.82-12.33,36.34q-.82,2.65-1.63,5.31Z" transform="translate(-493 -109)"/><path class="cls-29" d="M554.85,284.93h30.62q-.81-2.65-1.63-5.31c-3.84-12.52-6.82-24.47-10.66-37,0,.61-8.45,4.74-9.34,5.09-3.49,1.38-6.48,1.43-9.59,2.05C556.18,261.16,555.33,273.05,554.85,284.93Z" transform="translate(-493 -109)"/><path class="cls-11" d="M583.47,284.93h8.34l5.4-12.74c1.39-3.25,3-5.91,4-9.31.59-2,1.49-3.84,2-5.83.29-1,.42-5.54,1-6.05a23.57,23.57,0,0,1-25,3.57c-2.49-1.12-4.85-3.9-7.56-4A221.65,221.65,0,0,0,583.47,284.93Z" transform="translate(-493 -109)"/><path class="cls-30" d="M600.13,284.93c5.26-7.84,10.1-14.84,9.88-15.25l-5.51-9.86,7.5.81c-.77-2.39-2.49-14.09-4.7-15.27L603.06,242l-9,26.88-4.88,16.1Z" transform="translate(-493 -109)"/><path class="cls-30" d="M565.27,269.68c-.23.41,4.5,7.39,9.71,15.25h11.14l-4.88-16.1L573,242l-5,3.32c-2.21,1.18-3.93,12.88-4.7,15.27l7.5-.81Z" transform="translate(-493 -109)"/><path class="cls-29" d="M556.55,284.93a118.14,118.14,0,0,1-.87-13.29,114.29,114.29,0,0,0-1.43-21.86c-1.53.3-3,1.08-4.73,1.56-12.8,3.45-13.17,12.14-14.1,21.36-.43,4.24.15,8.15-.57,12.23Z" transform="translate(-493 -109)"/><path class="cls-28" d="M575.73,237.37a5.4,5.4,0,0,1-1.19,2.56c-.31.29-2.14,1.42-2.07,1.8a21.93,21.93,0,0,1,.09,9.16c-.54,2.59-1.48,5.17-4,6.34a4.78,4.78,0,0,0-1,.59c-.13.09-.25.2-.38.31-.7.63-.43.95-.27,1.82,0,.16,0,.3.06.45a13.43,13.43,0,0,1,0,3.85,21.06,21.06,0,0,1-.72,3.24c-1.15,4-2.34,7.79-6.19,9.92-2.5,1.4-5.83,2.19-6.7,4.88-3.2-9.29,1.35-18.35,8.61-24.14a1.18,1.18,0,0,0,.18-.13,2,2,0,0,0,.63-.63,1.65,1.65,0,0,0,0-1.39,6.24,6.24,0,0,0-.36-.88,10.33,10.33,0,0,1,1.17-10c1.51-2.09,6.77-3,6.46-6.07a5.45,5.45,0,0,0-1-2.16c-2.87-5.11,1.85-9,6-11.59.34-.2.67-.4,1-.61.22.27.43.54.65.79A31.46,31.46,0,0,1,575.73,237.37Z" transform="translate(-493 -109)"/></g><path class="cls-31" d="M567.12,258.13c-.7.63-.43.95-.27,1.82,0,.16,0,.3.06.45-1.44-.72-3.3-1.59-5-2.25a1.18,1.18,0,0,0,.18-.13,2,2,0,0,0,.63-.63,1.65,1.65,0,0,0,0-1.39,20.1,20.1,0,0,1,4.7,1.82C567.37,257.91,567.25,258,567.12,258.13Z" transform="translate(-493 -109)"/></g></g><path class="cls-32" d="M806.72,362.81a9.57,9.57,0,1,1,7.17-15.9l-.43.38a8.89,8.89,0,1,0,1.54,2.43l.52-.22a9.43,9.43,0,0,1,.77,3.75A9.57,9.57,0,0,1,806.72,362.81Z" transform="translate(-493 -109)"/><polygon class="cls-33" points="313.72 246.33 309.12 241.74 310.06 240.8 313.72 244.46 326.2 231.97 327.14 232.91 313.72 246.33"/></svg>