<svg xmlns="http://www.w3.org/2000/svg" width="97.176" height="36.308" viewBox="0 0 97.176 36.308">
  <g id="Group_9033" data-name="Group 9033" transform="translate(-5366 -2296)">
    <g id="Group_9031" data-name="Group 9031" transform="translate(5366 2296)">
      <g id="Group_9024" data-name="Group 9024" transform="translate(4.721 0)" style="isolation: isolate">
        <g id="Group_9017" data-name="Group 9017">
          <path id="Path_12604" data-name="Path 12604" d="M463.782,560.52a5.627,5.627,0,0,1-.893.54,10.276,10.276,0,0,1-1.367.562,12.659,12.659,0,0,1-1.731.441,10.757,10.757,0,0,1-1.962.176,8.3,8.3,0,0,1-3.374-.65,7.205,7.205,0,0,1-2.5-1.8,7.93,7.93,0,0,1-1.566-2.679,9.836,9.836,0,0,1-.54-3.3,9.023,9.023,0,0,1,.6-3.3,7.757,7.757,0,0,1,1.7-2.657,7.914,7.914,0,0,1,2.69-1.775,9.351,9.351,0,0,1,3.572-.651,12.265,12.265,0,0,1,1.566.1,14.085,14.085,0,0,1,1.466.265q.695.165,1.279.363t.981.376l.441,3.109-.176.044a8.022,8.022,0,0,0-2.448-2.939,5.622,5.622,0,0,0-3.2-.9,7.384,7.384,0,0,0-3.109.608,5.969,5.969,0,0,0-2.183,1.67,7.174,7.174,0,0,0-1.29,2.52,11.155,11.155,0,0,0-.43,3.162,12.141,12.141,0,0,0,.4,3.173,7.172,7.172,0,0,0,1.224,2.543,5.8,5.8,0,0,0,2.062,1.681,6.573,6.573,0,0,0,2.933.608,6.806,6.806,0,0,0,2.183-.321,5.435,5.435,0,0,0,1.687-.92,5.778,5.778,0,0,0,1.279-1.473,12.4,12.4,0,0,0,.981-2l.176.044Z" transform="translate(-449.846 -545.438)" fill="#fff"/>
        </g>
        <g id="Group_9018" data-name="Group 9018" transform="translate(16.736 0.331)">
          <path id="Path_12605" data-name="Path 12605" d="M469.58,561.925c.176-.235.322-.448.441-.639a2.788,2.788,0,0,0,.275-.584,2.907,2.907,0,0,0,.133-.65c.021-.235.033-.507.033-.816V548.562c0-.309-.012-.58-.033-.816a2.915,2.915,0,0,0-.133-.65,2.765,2.765,0,0,0-.275-.584c-.119-.191-.265-.4-.441-.64v-.043h2.955v.043q-.265.355-.442.64a2.762,2.762,0,0,0-.275.584,2.87,2.87,0,0,0-.132.65c-.022.236-.034.507-.034.816v4.851h9.261v-4.851c0-.309-.01-.58-.033-.816a2.916,2.916,0,0,0-.131-.65,2.813,2.813,0,0,0-.276-.584q-.176-.286-.441-.64v-.043h2.956v.043q-.265.355-.441.64a2.768,2.768,0,0,0-.276.584,2.867,2.867,0,0,0-.132.65c-.023.236-.033.507-.033.816v10.672c0,.309.01.581.033.816a2.859,2.859,0,0,0,.132.65,2.791,2.791,0,0,0,.276.584q.176.287.441.639v.044h-2.956v-.044q.265-.354.441-.641a2.871,2.871,0,0,0,.276-.586,2.921,2.921,0,0,0,.131-.653c.023-.235.033-.508.033-.818v-5.395h-9.261v5.395c0,.31.012.583.034.818a2.875,2.875,0,0,0,.132.653,2.819,2.819,0,0,0,.275.586q.177.287.442.641v.044H469.58Z" transform="translate(-469.58 -545.828)" fill="#fff"/>
        </g>
        <g id="Group_9019" data-name="Group 9019" transform="translate(31.399 0.132)">
          <path id="Path_12606" data-name="Path 12606" d="M489.339,561.933h-2.47v-.044a4.575,4.575,0,0,0,.507-.541,3.958,3.958,0,0,0,.353-.529,4.934,4.934,0,0,0,.3-.65q.144-.375.342-.9l4.983-13.67h.6L499,559.464c.147.411.272.743.375.992a5.578,5.578,0,0,0,.3.628,2,2,0,0,0,.32.43,4.243,4.243,0,0,0,.441.375v.044h-2.756v-.044a1.91,1.91,0,0,0,.309-.874,3.572,3.572,0,0,0-.265-1.6l-1.279-3.585h-6.262l-1.257,3.541a2.473,2.473,0,0,0-.165,1.616,2.18,2.18,0,0,0,.584.907Zm3.991-14.862-2.977,8.335h5.932Z" transform="translate(-486.869 -545.594)" fill="#fff"/>
        </g>
        <g id="Group_9020" data-name="Group 9020" transform="translate(46.216 0.331)">
          <path id="Path_12607" data-name="Path 12607" d="M504.341,561.969v-.044q.265-.352.441-.639a2.789,2.789,0,0,0,.276-.584,2.907,2.907,0,0,0,.132-.65q.033-.352.033-.816V548.562c0-.309-.011-.58-.033-.816a2.916,2.916,0,0,0-.132-.65,2.766,2.766,0,0,0-.276-.584q-.177-.286-.441-.64v-.043h5.667a4.837,4.837,0,0,1,3.462,1.033,3.67,3.67,0,0,1,1.058,2.75,6.257,6.257,0,0,1-.176,1.507,4.59,4.59,0,0,1-.55,1.32,3.838,3.838,0,0,1-2.316,1.7l2.712,5.109a8.521,8.521,0,0,0,1.1,1.758,3.351,3.351,0,0,0,1.3.918v.044h-2.314l-4.036-7.629h-3.837v4.888c0,.31.011.583.033.818a2.874,2.874,0,0,0,.133.653,2.82,2.82,0,0,0,.275.586q.177.287.441.641v.044Zm5.446-15.722h-1.279q-.86,0-2.095.022v7.651h3.4a3.374,3.374,0,0,0,1.61-.354,3.025,3.025,0,0,0,1.07-.94,4.012,4.012,0,0,0,.595-1.359,6.951,6.951,0,0,0,.187-1.637,5.3,5.3,0,0,0-.165-1.37,2.633,2.633,0,0,0-.562-1.073,2.529,2.529,0,0,0-1.069-.7A5.016,5.016,0,0,0,509.787,546.247Z" transform="translate(-504.341 -545.828)" fill="#fff"/>
        </g>
        <g id="Group_9021" data-name="Group 9021" transform="translate(59.844 0.331)">
          <path id="Path_12608" data-name="Path 12608" d="M520.41,561.969v-.044c.176-.235.323-.448.44-.639a2.743,2.743,0,0,0,.275-.584,2.861,2.861,0,0,0,.133-.65q.033-.352.033-.816V548.562c0-.309-.011-.58-.033-.816a2.87,2.87,0,0,0-.133-.65,2.721,2.721,0,0,0-.275-.584c-.117-.191-.265-.4-.44-.64v-.043h2.954v.043q-.265.355-.441.641a2.86,2.86,0,0,0-.276.585,2.912,2.912,0,0,0-.132.651c-.021.236-.033.508-.033.817v13.05l4.586-.156a2.89,2.89,0,0,0,1.9-.8,10.023,10.023,0,0,0,1.719-2.331l.176.066-1.014,3.572Z" transform="translate(-520.41 -545.828)" fill="#fff"/>
        </g>
        <g id="Group_9022" data-name="Group 9022" transform="translate(71.662 0.331)">
          <path id="Path_12609" data-name="Path 12609" d="M534.367,561.925c.177-.235.323-.448.441-.639a2.407,2.407,0,0,0,.265-.584,3.356,3.356,0,0,0,.121-.65c.023-.235.033-.507.033-.816V548.562c0-.309-.01-.58-.033-.816a2.914,2.914,0,0,0-.132-.65,2.766,2.766,0,0,0-.276-.584q-.177-.286-.441-.64v-.043H537.3v.043q-.266.355-.442.64a2.766,2.766,0,0,0-.276.584,2.917,2.917,0,0,0-.132.65c-.022.236-.033.507-.033.816v10.672a6.6,6.6,0,0,0,.044.816,3.392,3.392,0,0,0,.143.65,2.836,2.836,0,0,0,.276.584q.177.287.441.639l-.021.044h-2.956Z" transform="translate(-534.345 -545.828)" fill="#fff"/>
        </g>
        <g id="Group_9023" data-name="Group 9023" transform="translate(76.91 0.331)">
          <path id="Path_12610" data-name="Path 12610" d="M550.964,561.969H540.533v-.044a6.947,6.947,0,0,0,.65-1.224,3.512,3.512,0,0,0,.209-1.268V548.364a3.49,3.49,0,0,0-.209-1.279,7.238,7.238,0,0,0-.65-1.214v-.043h9.327l.859,3.2-.176.066q-.374-.534-.728-1.022c-.235-.327-.455-.618-.661-.878a4.027,4.027,0,0,0-.595-.622,1.027,1.027,0,0,0-.53-.256l-5.424-.133v7.453h3.551a.624.624,0,0,0,.428-.2,3,3,0,0,0,.41-.485,7.089,7.089,0,0,0,.374-.606q.177-.319.353-.584h.176v4.057h-.176c-.1-.147-.217-.323-.342-.529s-.254-.4-.385-.584a2.822,2.822,0,0,0-.41-.463.642.642,0,0,0-.428-.187h-3.551v7.563l5.579-.154a2.715,2.715,0,0,0,1.874-.882,14.8,14.8,0,0,0,1.72-2.227l.177.066Z" transform="translate(-540.533 -545.828)" fill="#fff"/>
        </g>
      </g>
      <g id="Group_9025" data-name="Group 9025" transform="translate(0 19.506)">
        <path id="Path_12611" data-name="Path 12611" d="M452.327,585.24a7.955,7.955,0,0,1-3.2-.639,7.679,7.679,0,0,1-2.547-1.764,8.312,8.312,0,0,1-1.687-2.657,8.8,8.8,0,0,1-.617-3.319,8.89,8.89,0,0,1,.617-3.33,8.29,8.29,0,0,1,1.687-2.668,8.069,8.069,0,0,1,8.941-1.775,7.951,7.951,0,0,1,2.558,1.775,8.2,8.2,0,0,1,1.7,2.668,8.89,8.89,0,0,1,.617,3.33,8.8,8.8,0,0,1-.617,3.319,8.223,8.223,0,0,1-1.7,2.657,7.8,7.8,0,0,1-2.558,1.764A7.955,7.955,0,0,1,452.327,585.24Zm0-.419a6.182,6.182,0,0,0,2.745-.6,6.076,6.076,0,0,0,2.084-1.659,7.609,7.609,0,0,0,1.323-2.52,11.145,11.145,0,0,0,0-6.358,7.735,7.735,0,0,0-1.323-2.543,6.167,6.167,0,0,0-2.084-1.68,6.5,6.5,0,0,0-5.49,0,6.167,6.167,0,0,0-2.084,1.68,7.573,7.573,0,0,0-1.312,2.543,10.766,10.766,0,0,0-.452,3.174,10.637,10.637,0,0,0,.452,3.162,7.459,7.459,0,0,0,1.312,2.521,6.208,6.208,0,0,0,2.084,1.669A6.085,6.085,0,0,0,452.327,584.821Z" transform="translate(-444.279 -568.438)" fill="#fff"/>
      </g>
      <g id="Group_9026" data-name="Group 9026" transform="translate(17.221 19.506)">
        <path id="Path_12612" data-name="Path 12612" d="M473.692,572.164l-.176.066a6.315,6.315,0,0,0-.783-1.642,4.388,4.388,0,0,0-.981-1.033,3.294,3.294,0,0,0-1.147-.544,5.267,5.267,0,0,0-1.279-.155,4.425,4.425,0,0,0-1.588.254,3.021,3.021,0,0,0-1.069.663,2.6,2.6,0,0,0-.606.952,3.162,3.162,0,0,0-.2,1.095,2.792,2.792,0,0,0,.375,1.493,3.828,3.828,0,0,0,.981,1.062,7.006,7.006,0,0,0,1.389.8q.782.344,1.621.7.86.375,1.676.783a6.6,6.6,0,0,1,1.455.981,4.6,4.6,0,0,1,1.036,1.355,4.705,4.705,0,0,1-.055,3.9,3.869,3.869,0,0,1-1.224,1.356,5.171,5.171,0,0,1-1.775.761,9.241,9.241,0,0,1-2.084.232,10.7,10.7,0,0,1-2.249-.232,11.493,11.493,0,0,1-1.985-.606l-.441-3.131.176-.066a6.226,6.226,0,0,0,1.9,2.751,4.927,4.927,0,0,0,3.043.865,4.073,4.073,0,0,0,2.955-.951,3.4,3.4,0,0,0,.97-2.543,3.644,3.644,0,0,0-.353-1.68,3.864,3.864,0,0,0-.937-1.183,6.214,6.214,0,0,0-1.345-.862q-.761-.365-1.577-.719-.838-.352-1.643-.739a6.948,6.948,0,0,1-1.433-.9,4.06,4.06,0,0,1-1.014-1.246,3.726,3.726,0,0,1-.386-1.764,3.3,3.3,0,0,1,1.3-2.833,5.659,5.659,0,0,1,3.44-.959,9.734,9.734,0,0,1,1.951.187,9.264,9.264,0,0,1,1.621.474Z" transform="translate(-464.585 -568.438)" fill="#fff"/>
      </g>
      <g id="Group_9027" data-name="Group 9027" transform="translate(29.349 19.748)">
        <path id="Path_12613" data-name="Path 12613" d="M478.885,584.953v-.044c.176-.235.322-.448.441-.639a2.785,2.785,0,0,0,.275-.584,2.906,2.906,0,0,0,.133-.65c.021-.235.033-.507.033-.816V571.546c0-.309-.012-.58-.033-.816a2.916,2.916,0,0,0-.133-.651,2.762,2.762,0,0,0-.275-.584c-.119-.191-.265-.4-.441-.64v-.043q1.366,0,2.127-.011c.508-.008.923-.018,1.247-.033s.6-.025.827-.033.525-.011.892-.011a8.59,8.59,0,0,1,2.723.353,4.164,4.164,0,0,1,1.588.9,2.744,2.744,0,0,1,.751,1.212,4.616,4.616,0,0,1,.187,1.256,4.762,4.762,0,0,1-.187,1.344,4.084,4.084,0,0,1-.552,1.168,3.508,3.508,0,0,1-.9.9,4.072,4.072,0,0,1-1.268.572,4.509,4.509,0,0,1,1.676.486,3.79,3.79,0,0,1,1.125.915,3.422,3.422,0,0,1,.639,1.226,5.008,5.008,0,0,1,.2,1.412,4.582,4.582,0,0,1-.353,1.82,3.678,3.678,0,0,1-1.08,1.423,5.076,5.076,0,0,1-1.84.916,9.628,9.628,0,0,1-2.635.32Zm5.82-8.622a3.37,3.37,0,0,0,1.566-.332,2.886,2.886,0,0,0,1.025-.862,3.393,3.393,0,0,0,.55-1.205,5.607,5.607,0,0,0,.166-1.338q0-3.45-4.1-3.451-.815,0-1.565.033t-1.39.077v7.078Zm-.728,8.2a4.919,4.919,0,0,0,3.539-1.086,3.845,3.845,0,0,0,1.114-2.883,4.076,4.076,0,0,0-.915-2.75,3.48,3.48,0,0,0-2.789-1.064h-3.97v7.628q.661.067,1.433.111T483.978,584.534Z" transform="translate(-478.885 -568.724)" fill="#fff"/>
      </g>
      <path id="Path_12614" data-name="Path 12614" d="M505.939,572.117a6.2,6.2,0,0,0-1.276-2,6.009,6.009,0,0,0-1.923-1.336,5.992,5.992,0,0,0-6.724,1.336,6.245,6.245,0,0,0-1.267,2,6.684,6.684,0,0,0-.464,2.5,6.616,6.616,0,0,0,.464,2.49,6.258,6.258,0,0,0,1.267,2,5.787,5.787,0,0,0,1.916,1.328,6.249,6.249,0,0,0,4.808,0,5.871,5.871,0,0,0,1.923-1.328,6.2,6.2,0,0,0,1.276-2,6.622,6.622,0,0,0,.464-2.49A6.691,6.691,0,0,0,505.939,572.117Zm-.862,2.5a7.623,7.623,0,0,1-.335,2.306,5.5,5.5,0,0,1-.952,1.812,4.368,4.368,0,0,1-1.49,1.187,4.455,4.455,0,0,1-1.966.427,4.365,4.365,0,0,1-1.963-.435,4.455,4.455,0,0,1-1.492-1.195,5.385,5.385,0,0,1-.943-1.813,8.208,8.208,0,0,1,0-4.587,5.461,5.461,0,0,1,.943-1.828,4.418,4.418,0,0,1,1.491-1.2,4.662,4.662,0,0,1,3.927,0,4.434,4.434,0,0,1,1.492,1.2,5.614,5.614,0,0,1,.952,1.829A7.652,7.652,0,0,1,505.078,574.615Z" transform="translate(-451.876 -548.909)" fill="#fff"/>
      <g id="Group_9028" data-name="Group 9028" transform="translate(56.34 19.837)">
        <path id="Path_12615" data-name="Path 12615" d="M510.711,584.969v-.044c.176-.235.322-.448.44-.639a2.791,2.791,0,0,0,.276-.584,2.955,2.955,0,0,0,.133-.65c.021-.235.033-.507.033-.816V571.562c0-.309-.012-.58-.033-.816a2.964,2.964,0,0,0-.133-.65,2.768,2.768,0,0,0-.276-.584c-.118-.191-.264-.4-.44-.64v-.043h5.666a4.837,4.837,0,0,1,3.462,1.033,3.67,3.67,0,0,1,1.058,2.75,6.254,6.254,0,0,1-.176,1.507,4.544,4.544,0,0,1-.551,1.32,3.827,3.827,0,0,1-2.315,1.7l2.713,5.109a8.492,8.492,0,0,0,1.1,1.758,3.348,3.348,0,0,0,1.3.918v.044h-2.316l-4.035-7.629h-3.837v4.888c0,.31.012.583.033.818a2.922,2.922,0,0,0,.132.653,2.867,2.867,0,0,0,.276.586q.177.287.441.641v.044Zm5.446-15.722h-1.278q-.861,0-2.1.022v7.651h3.4a3.374,3.374,0,0,0,1.61-.354,3.008,3.008,0,0,0,1.069-.94,4.012,4.012,0,0,0,.6-1.359,6.906,6.906,0,0,0,.187-1.637,5.341,5.341,0,0,0-.164-1.37,2.645,2.645,0,0,0-.563-1.073,2.531,2.531,0,0,0-1.069-.7A5.028,5.028,0,0,0,516.157,569.247Z" transform="translate(-510.711 -568.828)" fill="#fff"/>
      </g>
      <g id="Group_9029" data-name="Group 9029" transform="translate(69.084 19.837)">
        <path id="Path_12616" data-name="Path 12616" d="M527.921,571.033l.089,10.893a5.345,5.345,0,0,0,.065.893,2.576,2.576,0,0,0,.232.716,3,3,0,0,0,.463.662,7.275,7.275,0,0,0,.783.728v.044H526.4v-.044a5.747,5.747,0,0,0,.562-.728,3.526,3.526,0,0,0,.331-.662,3.067,3.067,0,0,0,.165-.716,8.109,8.109,0,0,0,.044-.893V570.548a6.452,6.452,0,0,0-.827-.992,3.783,3.783,0,0,0-.937-.684v-.043H527.7l11.135,13.98-.066-10.937a6.3,6.3,0,0,0-.055-.893,2.766,2.766,0,0,0-.2-.717,3.211,3.211,0,0,0-.4-.661,6.617,6.617,0,0,0-.673-.728v-.043h2.933v.043a6.214,6.214,0,0,0-.562.717,3.162,3.162,0,0,0-.332.651,3.087,3.087,0,0,0-.164.716,7.939,7.939,0,0,0-.045.916v13.1l-.2.066Z" transform="translate(-525.738 -568.828)" fill="#fff"/>
      </g>
      <g id="Group_9030" data-name="Group 9030" transform="translate(85.754 19.837)">
        <path id="Path_12617" data-name="Path 12617" d="M555.824,584.969h-10.43v-.044a6.948,6.948,0,0,0,.651-1.224,3.5,3.5,0,0,0,.209-1.268V571.364a3.474,3.474,0,0,0-.209-1.279,7.239,7.239,0,0,0-.651-1.214v-.043h9.327l.86,3.2-.176.066q-.375-.534-.728-1.022c-.236-.327-.456-.618-.662-.878a4.025,4.025,0,0,0-.6-.622,1.025,1.025,0,0,0-.529-.256l-5.424-.133v7.453h3.55a.628.628,0,0,0,.43-.2,3.082,3.082,0,0,0,.408-.485,7.094,7.094,0,0,0,.375-.606q.176-.319.353-.584h.176v4.057h-.176q-.154-.22-.343-.529t-.385-.584a2.9,2.9,0,0,0-.408-.463.646.646,0,0,0-.43-.187h-3.55v7.563l5.579-.154a2.717,2.717,0,0,0,1.874-.882,14.788,14.788,0,0,0,1.72-2.227l.176.066Z" transform="translate(-545.394 -568.828)" fill="#fff"/>
      </g>
    </g>
    <path id="Path_12618" data-name="Path 12618" d="M2,0,1.842,1.255,2.727.477l-.689,1L3.149,1.3,2.11,1.779l1.039.477L2.038,2.081l.689,1L1.842,2.3,2,3.557,1.574,2.383,1.152,3.557,1.307,2.3l-.885.778.689-1L0,2.255l1.039-.477L0,1.3l1.111.174-.689-1,.885.778L1.152,0l.422,1.174Z" transform="translate(5412.871 2328.587)" fill="#fff"/>
  </g>
</svg>
